# ProBuilder 4.5.2
# https://unity3d.com/unity/features/worldbuilding/probuilder
# 11/11/2021 3:22:03 PM

mtllib ./MusicStore_FloorKeyboard.mtl
o MusicStore_FloorKeyboard

g Keyboard_Floor
v 60.5 12.125 -89.25
v 60.5 12.125 -94.25
v 60.5 12.25 -89.25
v 60.5 12.25 -94.25
v 63 12.125 -94.25
v 63 12.125 -89.25
v 63 12.375 -94.25
v 63 12.375 -89.25
v 62.25 12.125 -89.25
v 62.25 12.25 -89.25
v 62.25 12.125 -94.25
v 62.25 12.25 -94.25

vt 0 0
vt -5 0
vt 0 0.125
vt -5 0.125
vt 5 0
vt 5 0.25
vt 0 0.25
vt -0.75 0
vt -0.75 0.125
vt -2.5 0
vt -2.5 0.125
vt 2.5 0
vt 0.75 0
vt 0.75 0.125
vt 2.5 0.125
vt -0.02062013 0
vt 0.7371344 0
vt 0.7371344 -5
vt -0.02062013 -5
vt 2.481172 0
vt 2.481172 -5
vt 0 -5
vt -0.75 -5
vt -2.5 -5

vn -1 0 0
vn 1 0 0
vn 0 0 1
vn 0 0 -1
vn -0.164399 0.9863939 0
vn 0 1 0
vn 0 -1 0

usemtl Lit
f 3/3/1 4/4/1 2/2/1 1/1/1
f 7/6/2 8/7/2 6/1/2 5/5/2
f 8/7/3 10/9/3 9/8/3 6/1/3
f 10/9/3 3/11/3 1/10/3 9/8/3
f 2/12/4 4/15/4 12/14/4 11/13/4
f 11/13/4 12/14/4 7/7/4 5/1/4
f 10/17/5 8/16/5 7/19/5 12/18/5
f 3/20/6 10/17/6 12/18/6 4/21/6
f 5/22/7 6/1/7 9/8/7 11/23/7
f 11/23/7 9/8/7 1/10/7 2/24/7

