# ProBuilder 4.5.2
# https://unity3d.com/unity/features/worldbuilding/probuilder
# 11/11/2021 3:21:28 PM

mtllib ./MusicStore_CDMachine.mtl
o MusicStore_CDMachine

g Arch (4)
v 64.146 12.875 -88.571
v 64.146 12.8489 -88.56929
v 64.24599 12.875 -88.571
v 64.24599 12.8489 -88.56929
v 64.146 12.85868 -88.49493
v 64.146 12.875 -88.496
v 64.24599 12.85868 -88.49493
v 64.24599 12.875 -88.496
v 64.146 12.82324 -88.56419
v 64.24599 12.82324 -88.56419
v 64.146 12.84265 -88.49174
v 64.24599 12.84265 -88.49174
v 64.146 12.79846 -88.55578
v 64.24599 12.79846 -88.55578
v 64.146 12.82716 -88.48648
v 64.24599 12.82716 -88.48648
v 64.146 12.775 -88.5442
v 64.24599 12.775 -88.5442
v 64.146 12.8125 -88.47926
v 64.24599 12.8125 -88.47926
v 64.146 12.75325 -88.52967
v 64.24599 12.75325 -88.52967
v 64.146 12.7989 -88.47017
v 64.24599 12.7989 -88.47017
v 64.146 12.73358 -88.51242
v 64.24599 12.73358 -88.51242
v 64.146 12.78661 -88.45939
v 64.24599 12.78661 -88.45939
v 64.146 12.71633 -88.49275
v 64.24599 12.71633 -88.49275
v 64.146 12.77583 -88.4471
v 64.24599 12.77583 -88.4471
v 64.146 12.70179 -88.471
v 64.24599 12.70179 -88.471
v 64.146 12.76675 -88.4335
v 64.24599 12.76675 -88.4335
v 64.146 12.69022 -88.44753
v 64.24599 12.69022 -88.44753
v 64.146 12.75951 -88.41883
v 64.24599 12.75951 -88.41883
v 64.146 12.68182 -88.42276
v 64.24599 12.68182 -88.42276
v 64.146 12.75426 -88.40335
v 64.24599 12.75426 -88.40335
v 64.146 12.67671 -88.3971
v 64.24599 12.67671 -88.3971
v 64.146 12.75107 -88.38731
v 64.24599 12.75107 -88.38731
v 64.146 12.675 -88.371
v 64.24599 12.675 -88.371
v 64.146 12.75 -88.371
v 64.24599 12.75 -88.371
v 64.25 12.875 -87.181
v 64.25 12.8489 -87.18271
v 64.15 12.875 -87.181
v 64.15 12.8489 -87.18271
v 64.25 12.85868 -87.25707
v 64.25 12.875 -87.256
v 64.15 12.85868 -87.25707
v 64.15 12.875 -87.256
v 64.25 12.82324 -87.18781
v 64.15 12.82324 -87.18781
v 64.25 12.84265 -87.26026
v 64.15 12.84265 -87.26026
v 64.25 12.79846 -87.19622
v 64.15 12.79846 -87.19622
v 64.25 12.82716 -87.26552
v 64.15 12.82716 -87.26552
v 64.25 12.775 -87.20779
v 64.15 12.775 -87.20779
v 64.25 12.8125 -87.27274
v 64.15 12.8125 -87.27274
v 64.25 12.75325 -87.22233
v 64.15 12.75325 -87.22233
v 64.25 12.7989 -87.28183
v 64.15 12.7989 -87.28183
v 64.25 12.73358 -87.23958
v 64.15 12.73358 -87.23958
v 64.25 12.78661 -87.29261
v 64.15 12.78661 -87.29261
v 64.25 12.71633 -87.25925
v 64.15 12.71633 -87.25925
v 64.25 12.77583 -87.3049
v 64.15 12.77583 -87.3049
v 64.25 12.70179 -87.281
v 64.15 12.70179 -87.281
v 64.25 12.76675 -87.3185
v 64.15 12.76675 -87.3185
v 64.25 12.69022 -87.30447
v 64.15 12.69022 -87.30447
v 64.25 12.75951 -87.33317
v 64.15 12.75951 -87.33317
v 64.25 12.68182 -87.32924
v 64.15 12.68182 -87.32924
v 64.25 12.75426 -87.34865
v 64.15 12.75426 -87.34865
v 64.25 12.67671 -87.3549
v 64.15 12.67671 -87.3549
v 64.25 12.75107 -87.36469
v 64.15 12.75107 -87.36469
v 64.25 12.675 -87.381
v 64.15 12.675 -87.381
v 64.25 12.75 -87.381
v 64.15 12.75 -87.381
v 64.396 12.125 -87.375
v 63.646 12.125 -87.375
v 63.646 12.75 -87.375
v 64.396 12.75 -87.375
v 63.896 13 -87.375
v 64.396 13 -87.375
v 63.646 12.125 -88.375
v 64.396 12.125 -88.375
v 64.396 12.75 -88.375
v 63.646 12.75 -88.375
v 64.396 13 -88.375
v 63.896 13 -88.375
v 63.5209 12.125 -88.375
v 63.5209 12.75 -88.375
v 63.5209 12.75 -87.375
v 63.5209 12.125 -87.375
v 64.32535 13.1251 -87.375
v 63.96664 13.1251 -87.375
v 63.96664 13.1251 -87.5
v 64.32535 13.1251 -87.5
v 63.646 12.125 -87.5
v 64.396 12.125 -87.5
v 63.5209 12.125 -87.5
v 63.5209 12.75 -87.5
v 63.646 12.75 -87.5
v 63.896 13 -87.5
v 64.396 12.75 -87.5
v 64.396 13 -87.5
v 63.96664 13.1251 -88.375
v 64.32535 13.1251 -88.375
v 64.32535 13.1251 -88.25
v 63.96664 13.1251 -88.25
v 63.646 12.125 -88.25
v 64.396 12.125 -88.25
v 63.5209 12.125 -88.25
v 63.5209 12.75 -88.25
v 63.77092 12.75007 -87.5
v 63.77092 12.75007 -88.25
v 64.02092 13.00007 -88.25
v 64.02092 13.00007 -87.5
v 63.646 12.75 -88.25
v 63.896 13 -88.25
v 64.396 12.75 -88.25
v 64.396 13 -88.25

vt 0 0
vt 0 0.02616125
vt 0.1 0
vt 0.1 0.02616125
vt 0 0.021256
vt 0 0.004905221
vt -0.1 0.021256
vt -0.1 0.004905221
vt 0 0.1
vt 0.075 0.1
vt 0.075 0
vt 0 0.02593744
vt 0 0.05209869
vt 0.1 0.02593744
vt 0.1 0.05209869
vt 0 0.04719348
vt 0 0.0308427
vt -0.1 0.04719348
vt -0.1 0.0308427
vt 0 0.05120727
vt 0 0.07736853
vt 0.1 0.05120727
vt 0.1 0.07736853
vt 0 0.07246329
vt 0 0.05611251
vt -0.1 0.07246329
vt -0.1 0.05611251
vt 0 0.07537712
vt 0 0.1015384
vt 0.1 0.07537712
vt 0.1 0.1015384
vt 0 0.09663313
vt 0 0.08028235
vt -0.1 0.09663313
vt -0.1 0.08028235
vt 0 0.09803342
vt 0 0.1241947
vt 0.1 0.09803342
vt 0.1 0.1241947
vt 0 0.1192894
vt 0 0.1029387
vt -0.1 0.1192894
vt -0.1 0.1029387
vt 0 0.1187886
vt 0 0.1449498
vt 0.1 0.1187886
vt 0.1 0.1449498
vt 0 0.1400446
vt 0 0.1236938
vt -0.1 0.1400446
vt -0.1 0.1236938
vt -0.1372873 0
vt -0.1634486 0
vt -0.1372873 0.1
vt -0.1634486 0.1
vt 0.1585433 0
vt 0.1421926 0
vt 0.1585433 0.1
vt 0.1421926 0.1
vt -0.1532133 0
vt -0.1793746 0
vt -0.1532133 0.1
vt -0.1793746 0.1
vt 0.1744693 0
vt 0.1581185 0
vt 0.1744693 0.1
vt 0.1581185 0.1
vt -0.1662939 0
vt -0.1924551 0
vt -0.1662939 0.1
vt -0.1924551 0.1
vt 0.1875499 0
vt 0.1711991 0
vt 0.1875499 0.1
vt 0.1711991 0.1
vt -0.1763054 0
vt -0.2024667 0
vt -0.1763054 0.1
vt -0.2024667 0.1
vt 0.1975614 0
vt 0.1812107 0
vt 0.1975614 0.1
vt 0.1812107 0.1
vt -0.1830764 0
vt -0.2092376 0
vt -0.1830764 0.1
vt -0.2092376 0.1
vt 0.2043324 0
vt 0.2043324 0.1
vt -0.1864912 0
vt -0.2126525 0
vt -0.1864912 0.1
vt -0.2126525 0.1
vt 0.2077472 0
vt 0.1913964 0
vt 0.2077472 0.1
vt 0.1913964 0.1
vt 0.001711026 0.02610524
vt 0.07606939 0.01631577
vt -0.001711026 0.02610524
vt -0.07606939 0.01631577
vt -0.075 0
vt 0.006814837 0.05176381
vt 0.07925928 0.03235238
vt -0.006814837 0.05176381
vt -0.07925928 0.03235238
vt 0.0152241 0.07653669
vt 0.08451506 0.04783543
vt -0.0152241 0.07653669
vt -0.08451506 0.04783543
vt 0.02679493 0.1
vt 0.09174683 0.0625
vt -0.02679493 0.1
vt -0.09174683 0.0625
vt 0.04132934 0.1217523
vt 0.1008308 0.07609518
vt -0.04132934 0.1217523
vt -0.1008308 0.07609518
vt 0.05857864 0.1414214
vt 0.1116117 0.08838835
vt -0.05857864 0.1414214
vt -0.1116117 0.08838835
vt 0.07824772 0.1586707
vt 0.1239048 0.09916916
vt -0.07824772 0.1586707
vt -0.1239048 0.09916916
vt 0.1 0.1732051
vt 0.1375 0.1082532
vt -0.1 0.1732051
vt -0.1375 0.1082532
vt 0.1234633 0.1847759
vt 0.1521646 0.1154849
vt -0.1234633 0.1847759
vt -0.1521646 0.1154849
vt 0.1482362 0.1931852
vt 0.1676476 0.1207407
vt -0.1482362 0.1931852
vt -0.1676476 0.1207407
vt 0.1738947 0.198289
vt 0.1836842 0.1239306
vt -0.1738947 0.198289
vt -0.1836842 0.1239306
vt 0.2 0.2
vt 0.2 0.125
vt -0.2 0.2
vt -0.2 0.125
vt 0.09999999 0
vt 0.09999999 0.02616125
vt -0.09999999 0.02125601
vt -0.09999999 0.004905224
vt 0.07500005 0.09999999
vt 0.09999999 0.02593744
vt 0.09999999 0.05209869
vt -0.09999999 0.0471935
vt -0.09999999 0.03084271
vt 0.09999999 0.05120727
vt 0.09999999 0.07736856
vt -0.09999999 0.0724633
vt -0.09999999 0.0561125
vt 0.09999999 0.07537717
vt 0.09999999 0.1015384
vt -0.09999999 0.09663314
vt -0.09999999 0.08028239
vt 0.09999999 0.09803343
vt 0.09999999 0.1241946
vt -0.09999999 0.1192895
vt -0.09999999 0.1029387
vt 0.09999999 0.1187885
vt 0.09999999 0.1449498
vt -0.09999999 0.1400446
vt -0.09999999 0.1236938
vt -0.1372873 0.09999999
vt -0.1634486 0.09999999
vt 0.1585433 0.09999999
vt 0.1421926 0.09999999
vt -0.1532133 0.09999999
vt -0.1793746 0.09999999
vt 0.1744694 0.09999999
vt 0.1581185 0.09999999
vt -0.1662938 0.09999999
vt -0.1924551 0.09999999
vt 0.1875501 0.09999999
vt 0.1711992 0.09999999
vt -0.1763054 0.09999999
vt -0.2024667 0.09999999
vt 0.1975614 0.09999999
vt 0.1812107 0.09999999
vt -0.1830764 0.09999999
vt -0.2092377 0.09999999
vt 0.2043324 0.09999999
vt -0.1864913 0.09999999
vt -0.2126524 0.09999999
vt 0.2077472 0.09999999
vt 0.1913965 0.09999999
vt 0.07499373 0
vt -0.07499373 -9.313226E-10
vt 0.09174418 0.06250001
vt 0.0999999 0.1732051
vt 0.1374999 0.1082538
vt -0.0999999 0.1732051
vt -0.1374999 0.1082538
vt 0.1999999 0.2
vt 0.1999999 0.1249997
vt -0.1999999 0.2
vt -0.1999999 0.1249997
vt -0.7500001 2.980232E-08
vt -0.75 0.625
vt 0 0.6249999
vt -0.5 0.8750001
vt -5.960464E-08 0.875
vt -5.960464E-08 0.625
vt 0.7499999 -2.980232E-08
vt 0.75 0.6249999
vt 0.5 0.875
vt 0.7499999 0.625
vt 0.75 0
vt 0.75 0.625
vt 0.8750992 0
vt 0.8750992 0.625
vt -0.8750992 0.625
vt -0.8750993 0
vt 0.07064438 0
vt 0.4293556 -3.72529E-09
vt 0.4293556 -0.125
vt 0.07064438 -0.125
vt -0.75 -0.1250001
vt 0 -0.125
vt -0.125 0
vt -0.125 0.625
vt 0.08838838 0
vt 0.08838838 -0.125
vt -0.265165 -0.1250001
vt -0.265165 -1.192093E-07
vt 0.125 0.625
vt 0.125 0
vt 0.125 0.875
vt -0.8750992 -0.125
vt 0.75 -0.125
vt 0.8750992 -0.125
vt 0.4293556 -0.9999999
vt 0.07064438 -1
vt 0.07064438 -0.8750001
vt 0.4293556 -0.875
vt 0.4293556 -0.8749999
vt -0.75 -1
vt -0.75 -0.875
vt -2.980232E-08 -0.875
vt 0 -1
vt -0.75 -0.8749999
vt -0.75 -0.125
vt -0.125 -2.980232E-08
vt -0.8749999 0.625
vt -0.1249999 0.6249999
vt -1 0
vt -0.9999999 0.625
vt 1.370907E-06 -0.1249999
vt -0.353552 -0.8750001
vt -0.353552 -0.1250002
vt 0.08838834 -0.8749999
vt 0.08838834 -0.9999999
vt -0.265165 -1
vt -0.265165 -0.875
vt 0.8750001 0.6249999
vt 0.8749999 -2.980232E-08
vt 1 0.625
vt 1 0
vt 0.8750001 0.875
vt 1 0.875
vt -0.8750992 -1
vt -0.8750992 -0.875
vt -0.8750992 -0.1249999
vt 0.8750992 -1
vt 0.75 -1
vt 0.75 -0.875
vt 0.8750992 -0.875
vt 0.7500001 -0.1249999
vt 0.8750992 -0.1249999
vt 0 0.5160517
vt -0.125 0.5160517
vt 0 0.6597203
vt -0.125 0.6597203
vt 0.8750001 0.7619104
vt 0.1250001 0.7619105
vt 0.8750001 0.9055791
vt 0.1250001 0.9055791
vt -0.875 0.5160517
vt -0.875 0.6597204
vt 0 0.7619105
vt 0 0.9055791
vt 0.5 0.8749999
vt 0.4293556 1.0001
vt 0.07064821 1.0001
vt 1 0.7619104
vt 1 0.905579
vt -1 0.5160517
vt -1 0.6597203
vt 0 0.8749999
vt -0.07064819 1.0001
vt -0.4293556 1.0001
vt 0.7496468 -0.1249999
vt 0.7496467 -0.8750001
vt 0.6247194 -0.1249999
vt 0.6247193 -0.8750001
vt -0.4999975 0.875
vt -0.6250712 0.6250706
vt -0.3750725 0.8750706
vt 0.3750725 0.8750706
vt 0.6250712 0.6250706
vt -0.4995055 -0.875
vt -0.4995056 -0.125
vt -0.3745781 -0.875
vt -0.3745781 -0.125

vn 1.189541E-07 -0.06540307 -0.9978591
vn -1.189541E-07 0.06540295 0.9978591
vn 0 1 0
vn 1.169187E-07 -0.1950905 -0.9807854
vn -1.169187E-07 0.1950907 0.9807853
vn 1.128829E-07 -0.3214396 -0.9469302
vn -1.128829E-07 0.3214396 0.9469302
vn 1.069156E-07 -0.4422889 -0.8968728
vn -1.069156E-07 0.4422888 0.8968729
vn 9.911889E-08 -0.5555704 -0.8314697
vn -9.91189E-08 0.5555704 0.8314697
vn 8.962633E-08 -0.6593456 -0.7518403
vn -8.962629E-08 0.659346 0.7518399
vn 7.86001E-08 -0.7518404 -0.6593455
vn -7.860015E-08 0.75184 0.6593459
vn 6.622918E-08 -0.8314696 -0.5555707
vn -6.622918E-08 0.8314696 0.5555707
vn 5.272487E-08 -0.8968732 -0.4422883
vn -5.272485E-08 0.8968733 0.4422882
vn 3.83186E-08 -0.9469303 -0.3214397
vn -3.831861E-08 0.9469303 0.3214398
vn 2.325654E-08 -0.9807856 -0.19509
vn -2.325655E-08 0.9807856 0.1950901
vn 7.796711E-09 -0.9978591 -0.06540356
vn -7.796693E-09 0.9978592 0.06540341
vn 1 0 -1.192093E-07
vn -1 0 1.192093E-07
vn -1.189547E-07 -0.06532613 0.9978641
vn 1.18951E-07 0.06579121 -0.9978335
vn -1.169185E-07 -0.1950995 0.9807836
vn 1.169199E-07 0.1950392 -0.9807956
vn -1.128855E-07 -0.3213741 0.9469525
vn 1.128808E-07 0.3214896 -0.9469132
vn -1.069102E-07 -0.4423808 0.8968275
vn 1.069351E-07 0.4419557 -0.897037
vn -9.911988E-08 -0.5555581 0.8314779
vn 9.911105E-08 0.555669 -0.8314039
vn -8.962363E-08 -0.6593715 0.7518176
vn 8.962706E-08 0.6593385 -0.7518464
vn -7.860073E-08 -0.7518358 0.6593508
vn 7.860621E-08 0.7517954 -0.6593968
vn -6.623269E-08 -0.8314499 0.5556001
vn 6.623127E-08 0.8314578 -0.5555882
vn -5.27168E-08 -0.8969066 0.4422207
vn 5.270508E-08 0.896955 -0.4421223
vn -3.831611E-08 -0.9469374 0.3214189
vn 3.832467E-08 0.946913 -0.3214907
vn -2.325851E-08 -0.9807823 0.1951065
vn 2.325718E-08 0.9807845 -0.1950954
vn -7.797554E-09 -0.9978586 0.06541063
vn 7.796277E-09 0.9978594 -0.06539991
vn 3.973644E-08 0 1
vn 7.10543E-15 0 -1
vn 0 -1 0
vn -0.7071068 0.7071069 8.42937E-08
vn -0.870755 0.4917176 1.038021E-07
vn 0.8707436 0.4917377 -1.836848E-15
vn -0.0005649027 1 2.244722E-11
vn 0.0005649199 -1 -2.24479E-11

usemtl Lit
f 3/3/1 4/4/1 2/2/1 1/1/1
f 7/7/2 8/8/2 6/6/2 5/5/2
f 1/1/3 6/11/3 8/10/3 3/9/3
f 4/14/4 10/15/4 9/13/4 2/12/4
f 12/18/5 7/19/5 5/17/5 11/16/5
f 10/22/6 14/23/6 13/21/6 9/20/6
f 16/26/7 12/27/7 11/25/7 15/24/7
f 14/30/8 18/31/8 17/29/8 13/28/8
f 20/34/9 16/35/9 15/33/9 19/32/9
f 18/38/10 22/39/10 21/37/10 17/36/10
f 24/42/11 20/43/11 19/41/11 23/40/11
f 22/46/12 26/47/12 25/45/12 21/44/12
f 28/50/13 24/51/13 23/49/13 27/48/13
f 26/54/14 30/55/14 29/53/14 25/52/14
f 32/58/15 28/59/15 27/57/15 31/56/15
f 30/62/16 34/63/16 33/61/16 29/60/16
f 36/66/17 32/67/17 31/65/17 35/64/17
f 34/70/18 38/71/18 37/69/18 33/68/18
f 40/74/19 36/75/19 35/73/19 39/72/19
f 38/78/20 42/79/20 41/77/20 37/76/20
f 44/82/21 40/83/21 39/81/21 43/80/21
f 42/86/22 46/87/22 45/85/22 41/84/22
f 48/89/23 44/74/23 43/72/23 47/88/23
f 46/92/24 50/93/24 49/91/24 45/90/24
f 52/96/25 48/97/25 47/95/25 51/94/25
f 8/11/26 7/99/26 4/98/26 3/1/26
f 5/101/27 6/102/27 1/1/27 2/100/27
f 7/99/26 12/104/26 10/103/26 4/98/26
f 11/106/27 5/101/27 2/100/27 9/105/27
f 12/104/26 16/108/26 14/107/26 10/103/26
f 15/110/27 11/106/27 9/105/27 13/109/27
f 16/108/26 20/112/26 18/111/26 14/107/26
f 19/114/27 15/110/27 13/109/27 17/113/27
f 20/112/26 24/116/26 22/115/26 18/111/26
f 23/118/27 19/114/27 17/113/27 21/117/27
f 24/116/26 28/120/26 26/119/26 22/115/26
f 27/122/27 23/118/27 21/117/27 25/121/27
f 28/120/26 32/124/26 30/123/26 26/119/26
f 31/126/27 27/122/27 25/121/27 29/125/27
f 32/124/26 36/128/26 34/127/26 30/123/26
f 35/130/27 31/126/27 29/125/27 33/129/27
f 36/128/26 40/132/26 38/131/26 34/127/26
f 39/134/27 35/130/27 33/129/27 37/133/27
f 40/132/26 44/136/26 42/135/26 38/131/26
f 43/138/27 39/134/27 37/133/27 41/137/27
f 44/136/26 48/140/26 46/139/26 42/135/26
f 47/142/27 43/138/27 41/137/27 45/141/27
f 48/140/26 52/144/26 50/143/26 46/139/26
f 51/146/27 47/142/27 45/141/27 49/145/27
f 55/147/28 56/148/28 54/2/28 53/1/28
f 59/149/29 60/150/29 58/6/29 57/5/29
f 53/1/3 58/11/3 60/151/3 55/9/3
f 56/152/30 62/153/30 61/13/30 54/12/30
f 64/154/31 59/155/31 57/17/31 63/16/31
f 62/156/32 66/157/32 65/21/32 61/20/32
f 68/158/33 64/159/33 63/25/33 67/24/33
f 66/160/34 70/161/34 69/29/34 65/28/34
f 72/162/35 68/163/35 67/33/35 71/32/35
f 70/164/36 74/165/36 73/37/36 69/36/36
f 76/166/37 72/167/37 71/41/37 75/40/37
f 74/168/38 78/169/38 77/45/38 73/44/38
f 80/170/39 76/171/39 75/49/39 79/48/39
f 78/172/40 82/173/40 81/53/40 77/52/40
f 84/174/41 80/175/41 79/57/41 83/56/41
f 82/176/42 86/177/42 85/61/42 81/60/42
f 88/178/43 84/179/43 83/65/43 87/64/43
f 86/180/44 90/181/44 89/69/44 85/68/44
f 92/182/45 88/183/45 87/73/45 91/72/45
f 90/184/46 94/185/46 93/77/46 89/76/46
f 96/186/47 92/187/47 91/81/47 95/80/47
f 94/188/48 98/189/48 97/85/48 93/84/48
f 100/190/49 96/182/49 95/72/49 99/88/49
f 98/191/50 102/192/50 101/91/50 97/90/50
f 104/193/51 100/194/51 99/95/51 103/94/51
f 60/195/27 59/99/27 56/98/27 55/1/27
f 57/101/26 58/196/26 53/1/26 54/100/26
f 59/99/27 64/104/27 62/103/27 56/98/27
f 63/106/26 57/101/26 54/100/26 61/105/26
f 64/104/27 68/108/27 66/107/27 62/103/27
f 67/110/26 63/106/26 61/105/26 65/109/26
f 68/108/27 72/112/27 70/111/27 66/107/27
f 71/114/26 67/110/26 65/109/26 69/113/26
f 72/197/27 76/116/27 74/115/27 70/111/27
f 75/118/26 71/114/26 69/113/26 73/117/26
f 76/116/27 80/120/27 78/119/27 74/115/27
f 79/122/26 75/118/26 73/117/26 77/121/26
f 80/120/27 84/124/27 82/123/27 78/119/27
f 83/126/26 79/122/26 77/121/26 81/125/26
f 84/124/27 88/199/27 86/198/27 82/123/27
f 87/201/26 83/126/26 81/125/26 85/200/26
f 88/199/27 92/132/27 90/131/27 86/127/27
f 91/134/26 87/201/26 85/129/26 89/133/26
f 92/132/27 96/136/27 94/135/27 90/131/27
f 95/138/26 91/134/26 89/133/26 93/137/26
f 96/136/27 100/140/27 98/139/27 94/135/27
f 99/142/26 95/138/26 93/137/26 97/141/26
f 100/140/27 104/203/27 102/202/27 98/139/27
f 103/205/26 99/142/26 97/141/26 101/204/26
f 108/208/52 107/207/52 106/206/52 105/1/52
f 110/210/52 109/209/52 107/207/52 108/211/52
f 111/212/53 114/213/53 113/211/53 112/1/53
f 114/215/53 116/214/53 115/210/53 113/211/53
f 117/218/53 118/219/53 114/217/53 111/216/53
f 119/220/52 120/221/52 106/206/52 107/207/52
f 122/223/3 121/222/3 124/225/3 123/224/3
f 126/227/54 105/1/54 106/206/54 125/226/54
f 119/211/27 128/229/27 127/228/27 120/1/27
f 109/233/55 130/232/55 129/231/55 107/230/55
f 126/235/26 131/234/26 108/211/26 105/1/26
f 131/234/26 132/236/26 110/210/26 108/211/26
f 125/226/54 106/206/54 120/221/54 127/237/54
f 119/218/3 107/216/3 129/238/3 128/239/3
f 136/243/3 135/242/3 134/241/3 133/240/3
f 123/224/3 124/225/3 135/242/3 136/244/3
f 112/248/54 138/247/54 137/246/54 111/245/54
f 138/247/54 126/227/54 125/250/54 137/249/54
f 128/253/27 140/252/27 139/221/27 127/251/27
f 140/252/27 118/255/27 117/254/27 139/221/27
f 144/258/55 143/257/55 142/247/55 141/256/55
f 146/262/55 116/261/55 114/260/55 145/259/55
f 138/264/26 147/263/26 131/234/26 126/235/26
f 112/266/26 113/265/26 147/219/26 138/218/26
f 147/219/26 148/267/26 132/236/26 131/234/26
f 113/265/26 115/268/26 148/267/26 147/219/26
f 111/245/54 137/246/54 139/270/54 117/269/54
f 137/246/54 125/250/54 127/271/54 139/270/54
f 140/275/3 145/274/3 114/273/3 118/272/3
f 128/277/3 129/276/3 145/274/3 140/275/3
f 122/280/56 123/281/56 130/279/56 109/278/56
f 135/284/57 124/285/57 132/283/57 148/282/57
f 123/281/56 136/287/56 146/286/56 130/279/56
f 124/285/57 121/289/57 110/288/57 132/283/57
f 133/291/53 134/292/53 115/210/53 116/290/53
f 134/294/57 135/284/57 148/282/57 115/293/57
f 136/287/56 133/296/56 116/295/56 146/286/56
f 121/298/52 122/299/52 109/209/52 110/297/52
f 141/302/58 142/303/58 145/301/58 129/300/58
f 142/305/52 143/306/52 146/304/52 145/207/52
f 144/307/53 141/308/53 129/215/53 130/214/53
f 143/311/59 144/312/59 130/310/59 146/309/59

